# xmcd CD database file generated by LOLA_Freedb v0.9beta0
# 
# Track frame offsets:
#      150
#      12943
#      26233
#      36618
#      50168
#      58355
#      71090
#      80418
#      90960
#      102215
# 
# Disc length: 1545 seconds
# 
# Revision: 2 
# Processed by: cddbd v1.5.2PL0 Copyright (c) Steve Scherf et al.
# Submitted via: LOLA_Freedb v0.9beta0
# 
DISCID=8a06070a
DTITLE=Willie Nelson - Super Hits
DYEAR=1900
DGENRE=
TTITLE0=Willie Nelson - I Just Don't Understand
TTITLE1=Willie Nelson - You'll Always Have Someone
TTITLE2=Willie Nelson - Blame It On The Time
TTITLE3=Willie Nelson - Undo The Wrong
TTITLE4=Willie Nelson - You Wouldn't Cross The Street To Say Goodby
TTITLE5=Willie Nelson - Any Old Arms Won't Do
TTITLE6=One Step Beyond
TTITLE7=I Feel Sorry For Him
TTITLE8=Suffering In Silence
TTITLE9=Home Is Where You're Happy
EXTD=2690252 AAD
EXTT0=
EXTT1=
EXTT2=
EXTT3=
EXTT4=
EXTT5=
EXTT6=
EXTT7=
EXTT8=
EXTT9=
PLAYORDER=
